SplineFontDB: 3.0
FontName: AVHersheySimplexLight
FullName: AVHershey Simplex Light
FamilyName: AVHershey Simplex
Weight: Light
Copyright: Made in 2016 by Stewart C. Russell - scruss.com\n\nLicence: Dual-licensed CC0/WTFPL (srsly)\n\nDerived from character stroke coordinates by Allen V. Hershey published in "Calligraphy for Computers" (US Naval Weapons Laboratory, 1967-08-01, NWL Report No. 2101, NTIS accession number AD-662 398) and elsewhere. These coordinates were published without copyright.\n\nThe efforts of the Usenet Font Consortium (James Hurt, et al) who reformatted Hershey's data and published it to mod.sources on 1986-04-01 [Volume 4, Issue 42] are greatly appreciated.
UComments: "2016-2-6: Created with FontForge (http://fontforge.org)"
Version: 000.001
ItalicAngle: 0
UnderlinePosition: -100
UnderlineWidth: 50
Ascent: 800
Descent: 200
InvalidEm: 0
LayerCount: 2
Layer: 0 0 "Back" 1
Layer: 1 0 "Fore" 0
XUID: [1021 899 -1947539454 15733445]
StyleMap: 0x0000
FSType: 0
OS2Version: 0
OS2_WeightWidthSlopeOnly: 0
OS2_UseTypoMetrics: 1
CreationTime: 1454817147
ModificationTime: 1454977217
OS2TypoAscent: 0
OS2TypoAOffset: 1
OS2TypoDescent: 0
OS2TypoDOffset: 1
OS2TypoLinegap: 90
OS2WinAscent: 0
OS2WinAOffset: 1
OS2WinDescent: 0
OS2WinDOffset: 1
HheadAscent: 0
HheadAOffset: 1
HheadDescent: 0
HheadDOffset: 1
MarkAttachClasses: 1
DEI: 91125
Encoding: ISO8859-1
UnicodeInterp: none
NameList: AGL For New Fonts
DisplaySize: -48
AntiAlias: 1
FitToEm: 1
WinInfo: 0 29 11
BeginPrivate: 0
EndPrivate
BeginChars: 260 89

StartChar: exclam
Encoding: 33 33 0
Width: 277
VWidth: 0
Flags: W
HStem: 0 21G<131 145> 580 20G<131 145>
VStem: 128 20<203 590>
LayerCount: 2
Back
Fore
SplineSet
103 45 m 1
 131 72 l 1
 138 75 l 1
 145 72 l 1
 173 45 l 1
 176 38 l 1
 173 31 l 1
 145 3 l 1
 138 0 l 1
 131 3 l 1
 103 31 l 1
 100 38 l 1
 103 45 l 1
138 51 m 1
 125 38 l 1
 138 24 l 1
 151 38 l 1
 138 51 l 1
128 203 m 1
 128 590 l 1
 131 597 l 1
 138 600 l 1
 145 597 l 1
 148 590 l 1
 148 203 l 1
 145 196 l 1
 138 193 l 1
 131 196 l 1
 128 203 l 1
EndSplineSet
EndChar

StartChar: quotedbl
Encoding: 34 34 1
Width: 441
VWidth: 0
Flags: W
HStem: 390 207
VStem: 100 20<397 590> 320 20<397 590>
LayerCount: 2
Back
Fore
SplineSet
320 397 m 1
 320 590 l 1
 323 597 l 1
 330 600 l 1
 338 597 l 1
 340 590 l 1
 340 397 l 1
 338 390 l 1
 330 387 l 1
 323 390 l 1
 320 397 l 1
100 397 m 1
 100 590 l 1
 102 597 l 1
 110 600 l 1
 117 597 l 1
 120 590 l 1
 120 397 l 1
 117 390 l 1
 110 387 l 1
 102 390 l 1
 100 397 l 1
EndSplineSet
EndChar

StartChar: numbersign
Encoding: 35 35 2
Width: 580
VWidth: 0
Flags: W
HStem: -193 21G<102 116 268 286> 166 20<83 176 201 342 367 469> 331 20<110 213 238 378 403 497>
VStem: 268 18<-185 -181> 460 19<671 703>
LayerCount: 2
Back
Fore
SplineSet
101 -181 m 1
 176 166 l 1
 83 166 l 1
 73 172 l 1
 73 180 l 1
 83 186 l 1
 181 186 l 1
 213 331 l 1
 110 331 l 1
 101 338 l 1
 101 345 l 1
 110 351 l 1
 217 351 l 1
 294 703 l 1
 302 710 l 1
 309 709 l 1
 313 698 l 1
 238 351 l 1
 383 351 l 1
 460 703 l 1
 464 709 l 1
 471 710 l 1
 478 706 l 1
 479 698 l 1
 403 351 l 1
 497 351 l 1
 504 348 l 1
 506 338 l 1
 497 331 l 1
 399 331 l 1
 367 186 l 1
 469 186 l 1
 479 180 l 1
 479 172 l 1
 469 166 l 1
 363 166 l 1
 286 -185 l 1
 278 -193 l 1
 268 -189 l 1
 266 -181 l 1
 342 166 l 1
 197 166 l 1
 120 -185 l 1
 116 -192 l 1
 108 -193 l 1
 102 -189 l 1
 101 -181 l 1
233 331 m 1
 201 186 l 1
 346 186 l 1
 378 331 l 1
 233 331 l 1
EndSplineSet
EndChar

StartChar: dollar
Encoding: 36 36 3
Width: 551
VWidth: 0
Flags: W
HStem: 0 20<230 320> 580 20<230 320>
VStem: 73 19<454 503> 210 20<-100 0 24 318 346 576 600 700> 320 20<-100 0 24 282 309 576 600 700> 458 20<97 173>
LayerCount: 2
Back
Fore
SplineSet
210 597 m 1
 210 700 l 1
 213 708 l 1
 224 710 l 1
 230 700 l 1
 230 600 l 1
 320 600 l 1
 320 700 l 1
 323 708 l 1
 334 710 l 1
 340 700 l 1
 340 597 l 1
 420 569 l 1
 475 514 l 1
 478 507 l 1
 472 498 l 1
 465 498 l 1
 408 554 l 1
 340 576 l 1
 340 303 l 1
 362 295 l 1
 418 268 l 1
 450 235 l 1
 478 176 l 1
 478 93 l 1
 475 86 l 1
 420 31 l 1
 340 3 l 1
 340 -100 l 1
 337 -108 l 1
 330 -110 l 1
 323 -108 l 1
 320 -100 l 1
 320 0 l 1
 230 0 l 1
 230 -100 l 1
 224 -110 l 1
 216 -110 l 1
 210 -100 l 1
 210 3 l 1
 130 31 l 1
 75 86 l 1
 72 93 l 1
 78 102 l 1
 85 102 l 1
 142 46 l 1
 210 24 l 1
 210 325 l 1
 188 332 l 1
 132 360 l 1
 102 390 l 1
 73 447 l 1
 72 507 l 1
 75 514 l 1
 130 569 l 1
 210 597 l 1
230 580 m 1
 230 339 l 1
 320 309 l 1
 320 580 l 1
 230 580 l 1
210 576 m 1
 142 554 l 1
 92 503 l 1
 92 454 l 1
 118 403 l 1
 143 377 l 1
 210 346 l 1
 210 576 l 1
230 20 m 1
 320 20 l 1
 320 288 l 1
 230 318 l 1
 230 20 l 1
340 282 m 1
 340 24 l 1
 408 46 l 1
 458 97 l 1
 458 173 l 1
 432 225 l 1
 407 250 l 1
 340 282 l 1
EndSplineSet
EndChar

StartChar: ampersand
Encoding: 38 38 4
Width: 717
VWidth: 0
Flags: W
HStem: 0 20<195 300 554 602> 387 19<583 602> 580 20G<262.355 341.788>
VStem: 73 19<123 173> 210 20<454 505> 376 20<454 505> 624 19<42 65 341 365>
LayerCount: 2
Back
Fore
SplineSet
256 338 m 1
 238 366 l 1
 210 449 l 1
 210 507 l 1
 240 569 l 1
 303 600 l 1
 367 567 l 1
 395 512 l 1
 396 452 l 1
 365 390 l 1
 335 360 l 1
 285 331 l 1
 426 130 l 1
 460 180 l 1
 514 318 l 1
 542 374 l 1
 575 406 l 1
 607 407 l 1
 614 404 l 1
 643 373 l 1
 643 338 l 1
 638 332 l 1
 627 334 l 1
 624 341 l 1
 624 365 l 1
 602 387 l 1
 583 387 l 1
 560 363 l 1
 533 310 l 1
 478 172 l 1
 439 113 l 1
 449 99 l 1
 502 46 l 1
 554 20 l 1
 602 20 l 1
 624 42 l 1
 625 69 l 1
 634 75 l 1
 641 72 l 1
 644 65 l 1
 644 38 l 1
 641 31 l 1
 610 1 l 1
 547 1 l 1
 489 31 l 1
 427 95 l 1
 365 31 l 1
 303 0 l 1
 192 0 l 1
 130 31 l 1
 100 61 l 1
 73 116 l 1
 73 180 l 1
 100 235 l 1
 130 266 l 1
 256 338 l 1
274 348 m 1
 324 377 l 1
 350 403 l 1
 376 454 l 1
 376 505 l 1
 351 555 l 1
 303 579 l 1
 255 555 l 1
 230 505 l 1
 230 454 l 1
 257 373 l 1
 274 348 l 1
267 321 m 1
 143 251 l 1
 118 225 l 1
 92 173 l 1
 92 123 l 1
 118 71 l 1
 143 46 l 1
 195 20 l 1
 300 20 l 1
 352 46 l 1
 405 99 l 1
 414 113 l 1
 267 321 l 1
EndSplineSet
EndChar

StartChar: quotesingle
Encoding: 39 39 5
Width: 220
VWidth: 0
Flags: W
HStem: 390 207
VStem: 100 20<397 590>
LayerCount: 2
Back
Fore
SplineSet
100 397 m 1
 100 590 l 1
 103 597 l 1
 110 600 l 1
 117 597 l 1
 120 590 l 1
 120 397 l 1
 117 390 l 1
 110 387 l 1
 103 390 l 1
 100 397 l 1
EndSplineSet
EndChar

StartChar: parenleft
Encoding: 40 40 6
Width: 386
VWidth: 0
Flags: W
HStem: -193 21G<296 313>
VStem: 100 20<169 348.259>
LayerCount: 2
Back
Fore
SplineSet
241 652 m 1
 296 708 l 1
 303 710 l 1
 311 708 l 1
 313 700 l 1
 311 693 l 1
 256 639 l 1
 202 557 l 1
 147 449 l 1
 120 313 l 1
 120 204 l 1
 147 69 l 1
 202 -40 l 1
 256 -122 l 1
 313 -180 l 1
 313 -187 l 1
 303 -193 l 1
 296 -190 l 1
 241 -135 l 1
 184 -50 l 1
 128 63 l 1
 100 203 l 1
 100 316 l 1
 128 454 l 1
 184 567 l 1
 241 652 l 1
EndSplineSet
EndChar

StartChar: parenright
Encoding: 41 41 7
Width: 386
VWidth: 0
Flags: W
HStem: -193 21G<72 89>
VStem: 265 20<169 348.259>
LayerCount: 2
Back
Fore
SplineSet
129 639 m 1
 74 693 l 1
 72 700 l 1
 74 708 l 1
 82 710 l 1
 89 708 l 1
 145 651 l 1
 201 567 l 1
 256 456 l 1
 285 316 l 1
 285 203 l 1
 257 63 l 1
 201 -50 l 1
 144 -135 l 1
 89 -190 l 1
 82 -193 l 1
 72 -187 l 1
 72 -180 l 1
 129 -122 l 1
 183 -40 l 1
 238 69 l 1
 265 204 l 1
 265 313 l 1
 238 449 l 1
 183 557 l 1
 129 639 l 1
EndSplineSet
EndChar

StartChar: asterisk
Encoding: 42 42 8
Width: 443
VWidth: 0
Flags: W
VStem: 211 20<93 241 276 424>
LayerCount: 2
Back
Fore
SplineSet
78 184 m 1
 202 259 l 1
 78 333 l 1
 73 339 l 1
 74 347 l 1
 80 351 l 1
 88 350 l 1
 211 276 l 1
 211 424 l 1
 217 434 l 1
 225 434 l 1
 231 424 l 1
 231 276 l 1
 354 350 l 1
 362 351 l 1
 368 347 l 1
 369 339 l 1
 364 333 l 1
 240 259 l 1
 364 184 l 1
 369 178 l 1
 368 171 l 1
 362 166 l 1
 354 167 l 1
 231 241 l 1
 231 93 l 1
 225 84 l 1
 214 86 l 1
 211 93 l 1
 211 241 l 1
 88 167 l 1
 80 166 l 1
 74 171 l 1
 73 178 l 1
 78 184 l 1
EndSplineSet
EndChar

StartChar: plus
Encoding: 43 43 9
Width: 719
VWidth: 0
Flags: W
HStem: 0 21G<352 366> 249 20<110 349 369 608>
VStem: 349 20<10 249 269 507>
LayerCount: 2
Back
Fore
SplineSet
349 269 m 1
 349 507 l 1
 352 514 l 1
 359 517 l 1
 366 514 l 1
 369 507 l 1
 369 269 l 1
 608 269 l 1
 615 266 l 1
 618 259 l 1
 615 252 l 1
 608 249 l 1
 369 249 l 1
 369 10 l 1
 366 3 l 1
 359 0 l 1
 352 3 l 1
 349 10 l 1
 349 249 l 1
 110 249 l 1
 103 252 l 1
 100 259 l 1
 103 266 l 1
 110 269 l 1
 349 269 l 1
EndSplineSet
EndChar

StartChar: comma
Encoding: 44 44 10
Width: 277
VWidth: 0
Flags: W
HStem: -108 180 1 21G<113.333 156>
VStem: 156 19<-15 13>
LayerCount: 2
Back
Fore
SplineSet
173 45 m 1xa0
 176 38 l 1
 175 -22 l 1
 145 -80 l 1
 117 -108 l 1xa0
 107 -110 l 1
 101 -104 l 1
 101 -97 l 1
 130 -67 l 1
 156 -15 l 1
 156 13 l 1
 142 1 l 1
 134 1 l 1x60
 103 31 l 1
 101 41 l 1
 131 72 l 1
 138 75 l 1
 145 72 l 1
 173 45 l 1xa0
138 24 m 1
 151 38 l 1
 138 51 l 1
 125 38 l 1
 138 24 l 1
EndSplineSet
EndChar

StartChar: hyphen
Encoding: 45 45 11
Width: 719
VWidth: 0
Flags: W
HStem: 249 20<110 608>
LayerCount: 2
Back
Fore
SplineSet
608 249 m 1
 110 249 l 1
 103 252 l 1
 100 259 l 1
 103 266 l 1
 110 269 l 1
 608 269 l 1
 615 266 l 1
 618 259 l 1
 615 252 l 1
 608 249 l 1
EndSplineSet
EndChar

StartChar: period
Encoding: 46 46 12
Width: 277
VWidth: 0
Flags: W
HStem: 3 69
VStem: 103 70
LayerCount: 2
Back
Fore
SplineSet
103 45 m 1
 131 72 l 1
 138 75 l 1
 145 72 l 1
 173 45 l 1
 176 38 l 1
 173 31 l 1
 145 3 l 1
 138 0 l 1
 131 3 l 1
 103 31 l 1
 100 38 l 1
 103 45 l 1
138 51 m 1
 125 38 l 1
 138 24 l 1
 151 38 l 1
 138 51 l 1
EndSplineSet
EndChar

StartChar: slash
Encoding: 47 47 13
Width: 607
VWidth: 0
Flags: W
HStem: -193 21G<50 63>
LayerCount: 2
Back
Fore
SplineSet
46 -178 m 1
 543 705 l 1
 549 710 l 1
 556 709 l 1
 561 703 l 1
 560 696 l 1
 63 -188 l 1
 57 -193 l 1
 50 -192 l 1
 45 -186 l 1
 46 -178 l 1
EndSplineSet
EndChar

StartChar: zero
Encoding: 48 48 14
Width: 551
VWidth: 0
Flags: W
HStem: 1 19<249 301> 580 19<249 301>
VStem: 72 20<224.741 375.259> 458 20<224.741 375.259>
LayerCount: 2
Back
Fore
SplineSet
161 572 m 1
 244 599 l 1
 306 599 l 1
 392 570 l 1
 451 481 l 1
 478 343 l 1
 478 259 l 1
 451 119 l 1
 392 30 l 1
 306 1 l 1
 244 1 l 1
 158 30 l 1
 99 119 l 1
 72 257 l 1
 72 343 l 1
 99 481 l 1
 156 568 l 1
 161 572 l 1
249 580 m 1
 171 554 l 1
 119 476 l 1
 92 340 l 1
 92 260 l 1
 119 124 l 1
 171 46 l 1
 249 20 l 1
 301 20 l 1
 379 46 l 1
 431 124 l 1
 458 260 l 1
 458 340 l 1
 431 476 l 1
 379 554 l 1
 301 580 l 1
 249 580 l 1
EndSplineSet
EndChar

StartChar: one
Encoding: 49 49 15
Width: 553
VWidth: 0
Flags: W
HStem: 0 21G<297 311> 580 20G<297 311>
VStem: 294 20<10 566>
LayerCount: 2
Back
Fore
SplineSet
225 498 m 1
 170 471 l 1
 162 470 l 1
 157 475 l 1
 156 483 l 1
 161 488 l 1
 215 515 l 1
 297 597 l 1
 304 600 l 1
 311 597 l 1
 314 590 l 1
 314 10 l 1
 311 3 l 1
 304 0 l 1
 297 3 l 1
 294 10 l 1
 294 566 l 1
 225 498 l 1
EndSplineSet
EndChar

StartChar: two
Encoding: 50 50 16
Width: 552
VWidth: 0
Flags: W
HStem: 0 20<106 468> 580 20<222 328>
VStem: 99 20<452 477> 431 20<427 477>
LayerCount: 2
Back
Fore
SplineSet
119 477 m 1
 119 448 l 1
 113 443 l 1
 105 443 l 1
 99 452 l 1
 100 484 l 1
 128 539 l 1
 160 571 l 1
 220 600 l 1
 330 600 l 1
 390 571 l 1
 422 539 l 1
 450 484 l 1
 451 424 l 1
 421 364 l 1
 365 279 l 1
 106 20 l 1
 468 20 l 1
 478 14 l 1
 475 3 l 1
 468 0 l 1
 82 0 l 1
 75 3 l 1
 72 10 l 1
 75 17 l 1
 350 293 l 1
 404 374 l 1
 431 427 l 1
 431 477 l 1
 405 529 l 1
 380 554 l 1
 328 580 l 1
 222 580 l 1
 170 554 l 1
 145 529 l 1
 119 477 l 1
EndSplineSet
EndChar

StartChar: three
Encoding: 51 51 17
Width: 552
VWidth: 0
Flags: W
HStem: 0 20<222 302> 359 20<296 356> 580 20<138 422>
VStem: 459 20<177 229>
LayerCount: 2
Back
Fore
SplineSet
422 580 m 1
 138 580 l 1
 131 583 l 1
 129 594 l 1
 138 600 l 1
 442 600 l 1
 448 597 l 1
 452 591 l 1
 450 584 l 1
 296 379 l 1
 363 378 l 1
 421 348 l 1
 451 317 l 1
 479 231 l 1
 479 173 l 1
 451 90 l 1
 390 28 l 1
 307 1 l 1
 221 0 l 1
 135 28 l 1
 101 61 l 1
 74 116 l 1
 73 124 l 1
 78 129 l 1
 89 128 l 1
 119 71 l 1
 143 46 l 1
 222 20 l 1
 302 20 l 1
 381 46 l 1
 433 98 l 1
 459 177 l 1
 459 229 l 1
 433 308 l 1
 408 333 l 1
 356 359 l 1
 276 359 l 1
 269 362 l 1
 266 368 l 1
 268 375 l 1
 422 580 l 1
EndSplineSet
EndChar

StartChar: four
Encoding: 52 52 18
Width: 552
VWidth: 0
Flags: W
HStem: 1 21G<348 365> 193 20<101 348 368 496> 580 20G<350 364>
VStem: 348 20<10 193 213 559>
LayerCount: 2
Back
Fore
SplineSet
74 209 m 1
 350 596 l 1
 356 600 l 1
 364 598 l 1
 368 590 l 1
 368 213 l 1
 496 213 l 1
 503 210 l 1
 506 203 l 1
 503 196 l 1
 496 193 l 1
 368 193 l 1
 368 10 l 1
 365 3 l 1
 354 1 l 1
 348 10 l 1
 348 193 l 1
 82 193 l 1
 73 199 l 1
 74 209 l 1
348 559 m 1
 101 213 l 1
 348 213 l 1
 348 559 l 1
EndSplineSet
EndChar

StartChar: five
Encoding: 53 53 19
Width: 553
VWidth: 0
Flags: W
HStem: 1 19<222 302> 387 19<222 302> 580 20<147 414>
VStem: 459 20<177 229>
LayerCount: 2
Back
Fore
SplineSet
138 600 m 1
 414 600 l 1
 423 594 l 1
 421 583 l 1
 414 580 l 1
 147 580 l 1
 123 369 l 1
 135 379 l 1
 218 406 l 1
 304 407 l 1
 390 379 l 1
 449 321 l 1
 479 234 l 1
 479 173 l 1
 451 90 l 1
 390 28 l 1
 304 0 l 1
 218 1 l 1
 131 31 l 1
 101 61 l 1
 74 116 l 1
 73 124 l 1
 78 129 l 1
 89 128 l 1
 119 71 l 1
 143 46 l 1
 222 20 l 1
 302 20 l 1
 381 46 l 1
 433 98 l 1
 459 177 l 1
 459 229 l 1
 433 308 l 1
 381 360 l 1
 302 387 l 1
 222 387 l 1
 143 360 l 1
 114 332 l 1
 103 335 l 1
 100 343 l 1
 128 591 l 1
 131 597 l 1
 138 600 l 1
EndSplineSet
EndChar

StartChar: six
Encoding: 54 54 20
Width: 553
VWidth: 0
Flags: W
HStem: 1 19<278 302> 359 20<278 302> 580 20<278 330>
VStem: 100 20<265 375.259> 459 20<177 202>
LayerCount: 2
Back
Fore
SplineSet
100 203 m 1
 100 343 l 1
 128 481 l 1
 185 568 l 1
 190 572 l 1
 276 600 l 1
 334 599 l 1
 421 570 l 1
 451 512 l 1
 451 504 l 1
 446 498 l 1
 439 498 l 1
 433 503 l 1
 407 554 l 1
 330 580 l 1
 278 580 l 1
 200 554 l 1
 147 476 l 1
 120 340 l 1
 120 265 l 1
 131 293 l 1
 186 348 l 1
 273 379 l 1
 307 379 l 1
 390 351 l 1
 451 289 l 1
 479 206 l 1
 479 173 l 1
 449 86 l 1
 390 28 l 1
 307 1 l 1
 273 1 l 1
 190 28 l 1
 128 90 l 1
 100 203 l 1
121 203 m 1
 147 98 l 1
 199 46 l 1
 278 20 l 1
 302 20 l 1
 381 46 l 1
 433 98 l 1
 459 177 l 1
 459 202 l 1
 433 281 l 1
 381 333 l 1
 302 359 l 1
 278 359 l 1
 199 333 l 1
 147 281 l 1
 121 203 l 1
EndSplineSet
EndChar

StartChar: seven
Encoding: 55 55 21
Width: 553
VWidth: 0
Flags: W
HStem: 1 21G<184 202> 580 20<83 453>
LayerCount: 2
Back
Fore
SplineSet
184 14 m 1
 453 580 l 1
 83 580 l 1
 73 586 l 1
 73 594 l 1
 83 600 l 1
 474 599 l 1
 479 593 l 1
 478 586 l 1
 202 6 l 1
 196 1 l 1
 189 1 l 1
 184 7 l 1
 184 14 l 1
EndSplineSet
EndChar

StartChar: eight
Encoding: 56 56 22
Width: 551
VWidth: 0
Flags: W
HStem: 0 20<221 329> 580 20<221 329>
VStem: 72 20<123 201> 100 19<454 505> 431 19<454 505> 458 19<123 201>
LayerCount: 2
Back
Fore
SplineSet
134 572 m 1
 220 600 l 1
 330 600 l 1
 416 572 l 1
 422 567 l 1
 451 507 l 1
 450 447 l 1
 420 390 l 1
 362 360 l 1
 315 348 l 1
 393 321 l 1
 448 266 l 1
 477 208 l 1
 477 116 l 1
 450 61 l 1
 416 28 l 1
 330 0 l 1
 220 0 l 1
 134 28 l 1
 100 61 l 1
 72 120 l 1
 73 208 l 1
 102 266 l 1
 157 321 l 1
 235 348 l 1
 188 360 l 1
 130 390 l 1
 100 447 l 1
 100 512 l 1
 128 567 l 1
 134 572 l 1
221 580 m 1
 144 554 l 1
 119 505 l 1
 119 454 l 1
 144 404 l 1
 196 378 l 1
 275 359 l 1
 354 378 l 1
 406 404 l 1
 431 454 l 1
 431 505 l 1
 406 554 l 1
 329 580 l 1
 221 580 l 1
275 338 m 1
 170 305 l 1
 118 253 l 1
 92 201 l 1
 92 123 l 1
 118 71 l 1
 142 46 l 1
 221 20 l 1
 329 20 l 1
 408 46 l 1
 432 71 l 1
 458 123 l 1
 458 201 l 1
 432 253 l 1
 380 305 l 1
 275 338 l 1
EndSplineSet
EndChar

StartChar: nine
Encoding: 57 57 23
Width: 553
VWidth: 0
Flags: W
HStem: 1 19<222 274> 221 20<250 274> 580 19<250 274>
VStem: 73 20<398 423> 432 20<224.741 335>
LayerCount: 2
Back
Fore
SplineSet
452 398 m 1
 452 257 l 1
 424 119 l 1
 367 32 l 1
 362 28 l 1
 276 0 l 1
 218 1 l 1
 131 30 l 1
 101 88 l 1
 101 96 l 1
 106 102 l 1
 113 102 l 1
 119 97 l 1
 145 46 l 1
 222 20 l 1
 274 20 l 1
 352 46 l 1
 405 124 l 1
 432 260 l 1
 432 335 l 1
 421 307 l 1
 366 252 l 1
 279 221 l 1
 245 221 l 1
 162 249 l 1
 101 311 l 1
 73 394 l 1
 73 427 l 1
 103 514 l 1
 162 572 l 1
 245 599 l 1
 279 599 l 1
 362 572 l 1
 424 510 l 1
 452 398 l 1
405 319 m 1
 431 397 l 1
 405 502 l 1
 353 554 l 1
 274 580 l 1
 250 580 l 1
 171 554 l 1
 119 502 l 1
 93 423 l 1
 93 398 l 1
 119 319 l 1
 171 267 l 1
 250 241 l 1
 274 241 l 1
 353 267 l 1
 405 319 l 1
EndSplineSet
EndChar

StartChar: colon
Encoding: 58 58 24
Width: 277
VWidth: 0
Flags: W
HStem: 0 21G<131 145> 387 20G<131 145>
VStem: 103 70
LayerCount: 2
Back
Fore
SplineSet
103 376 m 1
 131 404 l 1
 138 407 l 1
 145 404 l 1
 173 376 l 1
 176 369 l 1
 173 362 l 1
 145 334 l 1
 138 331 l 1
 131 334 l 1
 103 362 l 1
 100 369 l 1
 103 376 l 1
138 383 m 1
 125 369 l 1
 138 356 l 1
 151 369 l 1
 138 383 l 1
103 45 m 1
 131 72 l 1
 138 75 l 1
 145 72 l 1
 173 45 l 1
 176 38 l 1
 173 31 l 1
 145 3 l 1
 138 0 l 1
 131 3 l 1
 103 31 l 1
 100 38 l 1
 103 45 l 1
138 51 m 1
 125 38 l 1
 138 24 l 1
 151 38 l 1
 138 51 l 1
EndSplineSet
EndChar

StartChar: semicolon
Encoding: 59 59 25
Width: 277
VWidth: 0
Flags: W
HStem: 1 21G<113.333 156> 387 20G<131 145>
VStem: 156 19<-15 13>
LayerCount: 2
Back
Fore
SplineSet
103 376 m 1
 131 404 l 1
 138 407 l 1
 145 404 l 1
 173 376 l 1
 176 369 l 1
 173 362 l 1
 145 334 l 1
 138 331 l 1
 131 334 l 1
 103 362 l 1
 100 369 l 1
 103 376 l 1
138 383 m 1
 125 369 l 1
 138 356 l 1
 151 369 l 1
 138 383 l 1
173 45 m 1
 176 38 l 1
 175 -22 l 1
 145 -80 l 1
 117 -108 l 1
 107 -110 l 1
 101 -104 l 1
 101 -97 l 1
 130 -67 l 1
 156 -15 l 1
 156 13 l 1
 142 1 l 1
 134 1 l 1
 103 31 l 1
 101 41 l 1
 131 72 l 1
 138 75 l 1
 145 72 l 1
 173 45 l 1
138 24 m 1
 151 38 l 1
 138 51 l 1
 125 38 l 1
 138 24 l 1
EndSplineSet
EndChar

StartChar: equal
Encoding: 61 61 26
Width: 719
VWidth: 0
Flags: W
HStem: 166 20<110 608> 331 20<110 608>
LayerCount: 2
Back
Fore
SplineSet
608 331 m 1
 110 331 l 1
 103 334 l 1
 100 341 l 1
 103 348 l 1
 110 351 l 1
 608 351 l 1
 615 348 l 1
 618 341 l 1
 615 334 l 1
 608 331 l 1
608 166 m 1
 110 166 l 1
 103 169 l 1
 100 176 l 1
 103 183 l 1
 110 186 l 1
 608 186 l 1
 615 183 l 1
 618 176 l 1
 615 169 l 1
 608 166 l 1
EndSplineSet
EndChar

StartChar: question
Encoding: 63 63 27
Width: 499
VWidth: 0
Flags: W
HStem: 0 21G<242 256> 580 20<196 302>
VStem: 73 20<452 477> 239 20<203 280> 405 20<427 477>
CounterMasks: 1 38
LayerCount: 2
Back
Fore
SplineSet
93 477 m 1
 93 448 l 1
 87 443 l 1
 79 443 l 1
 73 452 l 1
 74 484 l 1
 102 539 l 1
 134 571 l 1
 194 600 l 1
 304 600 l 1
 364 571 l 1
 396 539 l 1
 424 484 l 1
 425 424 l 1
 396 365 l 1
 367 334 l 1
 259 280 l 1
 259 203 l 1
 256 196 l 1
 249 193 l 1
 242 196 l 1
 239 203 l 1
 239 286 l 1
 242 293 l 1
 354 350 l 1
 379 375 l 1
 405 427 l 1
 405 477 l 1
 379 529 l 1
 354 554 l 1
 302 580 l 1
 196 580 l 1
 144 554 l 1
 119 529 l 1
 93 477 l 1
214 45 m 1
 242 72 l 1
 249 75 l 1
 256 72 l 1
 284 45 l 1
 287 38 l 1
 284 31 l 1
 256 3 l 1
 249 0 l 1
 242 3 l 1
 214 31 l 1
 211 38 l 1
 214 45 l 1
249 51 m 1
 236 38 l 1
 249 24 l 1
 262 38 l 1
 249 51 l 1
EndSplineSet
EndChar

StartChar: A
Encoding: 65 65 28
Width: 497
VWidth: 0
Flags: W
HStem: 1 20G<18 36 460 478> 194 19<115 381> 579 20G<239 257>
LayerCount: 2
Back
Fore
SplineSet
18 14 m 1
 239 594 l 1
 244 599 l 1
 252 599 l 1
 257 594 l 1
 478 14 l 1
 478 6 l 1
 469 0 l 1
 460 6 l 1
 388 194 l 1
 108 194 l 1
 36 6 l 1
 31 1 l 1
 23 1 l 1
 18 6 l 1
 18 14 l 1
248 562 m 1
 115 213 l 1
 381 213 l 1
 248 562 l 1
EndSplineSet
EndChar

StartChar: B
Encoding: 66 66 29
Width: 579
VWidth: 0
Flags: W
HStem: 0 20<120 357> 304 20<120 357> 580 20<120 357>
VStem: 100 20<20 304 324 580> 486 19<123 201 427 477>
LayerCount: 2
Back
Fore
SplineSet
100 590 m 1
 103 597 l 1
 110 600 l 1
 358 600 l 1
 444 572 l 1
 478 539 l 1
 506 480 l 1
 505 420 l 1
 478 365 l 1
 448 334 l 1
 390 314 l 1
 448 293 l 1
 478 263 l 1
 506 203 l 1
 505 116 l 1
 478 61 l 1
 448 31 l 1
 358 0 l 1
 110 0 l 1
 100 6 l 1
 100 590 l 1
120 580 m 1
 120 324 l 1
 357 324 l 1
 436 350 l 1
 460 375 l 1
 486 427 l 1
 486 477 l 1
 460 529 l 1
 436 554 l 1
 357 580 l 1
 120 580 l 1
120 20 m 1
 357 20 l 1
 436 46 l 1
 460 71 l 1
 486 123 l 1
 486 201 l 1
 460 253 l 1
 436 277 l 1
 357 304 l 1
 120 304 l 1
 120 20 l 1
EndSplineSet
EndChar

StartChar: C
Encoding: 67 67 30
Width: 580
VWidth: 0
Flags: W
HStem: 0 20<250 355> 580 19<250 355>
VStem: 72 20<233 367>
LayerCount: 2
Back
Fore
SplineSet
477 512 m 1
 505 456 l 1
 505 449 l 1
 500 443 l 1
 489 444 l 1
 460 501 l 1
 407 554 l 1
 355 580 l 1
 250 580 l 1
 198 554 l 1
 145 501 l 1
 119 448 l 1
 92 367 l 1
 92 233 l 1
 119 152 l 1
 145 99 l 1
 198 46 l 1
 250 20 l 1
 355 20 l 1
 407 46 l 1
 460 99 l 1
 489 156 l 1
 500 157 l 1
 506 147 l 1
 475 86 l 1
 420 31 l 1
 362 1 l 1
 247 0 l 1
 188 29 l 1
 128 88 l 1
 100 145 l 1
 72 231 l 1
 72 372 l 1
 100 455 l 1
 128 512 l 1
 185 569 l 1
 243 599 l 1
 358 600 l 1
 420 569 l 1
 477 512 l 1
EndSplineSet
EndChar

StartChar: D
Encoding: 68 68 31
Width: 579
VWidth: 0
Flags: W
HStem: 0 20<120 301> 580 20<120 301>
VStem: 100 20<20 580> 486 20<233 367>
LayerCount: 2
Back
Fore
SplineSet
100 590 m 1
 103 597 l 1
 110 600 l 1
 306 599 l 1
 389 572 l 1
 450 512 l 1
 478 455 l 1
 506 372 l 1
 506 231 l 1
 478 145 l 1
 450 88 l 1
 389 28 l 1
 303 0 l 1
 110 0 l 1
 100 6 l 1
 100 590 l 1
120 580 m 1
 120 20 l 1
 301 20 l 1
 380 46 l 1
 433 99 l 1
 459 152 l 1
 486 233 l 1
 486 367 l 1
 459 448 l 1
 433 501 l 1
 380 554 l 1
 301 580 l 1
 120 580 l 1
EndSplineSet
EndChar

StartChar: E
Encoding: 69 69 32
Width: 525
VWidth: 0
Flags: W
HStem: 0 20<120 469> 304 20<120 331> 580 20<120 469>
VStem: 101 19<20 304 324 580>
LayerCount: 2
Back
Fore
SplineSet
100 590 m 1
 103 597 l 1
 110 600 l 1
 469 600 l 1
 479 594 l 1
 479 586 l 1
 469 580 l 1
 120 580 l 1
 120 324 l 1
 331 324 l 1
 338 321 l 1
 341 314 l 1
 338 307 l 1
 331 304 l 1
 120 304 l 1
 120 20 l 1
 469 20 l 1
 476 17 l 1
 479 10 l 1
 473 1 l 1
 110 0 l 1
 101 6 l 1
 100 590 l 1
EndSplineSet
EndChar

StartChar: F
Encoding: 70 70 33
Width: 497
VWidth: 0
Flags: W
HStem: 0 21G<103 117> 304 20<120 331> 580 20<120 469>
VStem: 100 20<10 304 324 580>
LayerCount: 2
Back
Fore
SplineSet
100 590 m 1
 103 597 l 1
 110 600 l 1
 469 600 l 1
 476 597 l 1
 479 590 l 1
 476 583 l 1
 469 580 l 1
 120 580 l 1
 120 324 l 1
 331 324 l 1
 338 321 l 1
 341 314 l 1
 338 307 l 1
 331 304 l 1
 120 304 l 1
 120 10 l 1
 117 3 l 1
 110 0 l 1
 103 3 l 1
 100 10 l 1
 100 590 l 1
EndSplineSet
EndChar

StartChar: G
Encoding: 71 71 34
Width: 580
VWidth: 0
Flags: W
HStem: 0 20<250 355> 221 20<358 486> 580 19<250 355>
VStem: 72 20<233 367> 486 19<150 221>
LayerCount: 2
Back
Fore
SplineSet
477 512 m 1
 505 456 l 1
 505 449 l 1
 500 443 l 1
 489 444 l 1
 460 501 l 1
 407 554 l 1
 355 580 l 1
 250 580 l 1
 198 554 l 1
 145 501 l 1
 119 448 l 1
 92 367 l 1
 92 233 l 1
 119 152 l 1
 145 99 l 1
 198 46 l 1
 250 20 l 1
 355 20 l 1
 407 46 l 1
 460 99 l 1
 486 150 l 1
 486 221 l 1
 358 221 l 1
 351 224 l 1
 349 235 l 1
 358 241 l 1
 496 241 l 1
 503 238 l 1
 506 231 l 1
 505 144 l 1
 475 86 l 1
 418 29 l 1
 358 0 l 1
 247 0 l 1
 188 29 l 1
 128 88 l 1
 100 145 l 1
 72 231 l 1
 72 372 l 1
 100 455 l 1
 128 512 l 1
 185 569 l 1
 243 599 l 1
 358 600 l 1
 420 569 l 1
 477 512 l 1
EndSplineSet
EndChar

StartChar: H
Encoding: 72 72 35
Width: 607
VWidth: 0
Flags: W
HStem: 1 21G<103 120 486 503> 304 20<120 486> 579 20G<103 120 486 503>
VStem: 100 20<10 304 324 590> 486 20<10 304 324 590>
LayerCount: 2
Back
Fore
SplineSet
100 314 m 1
 100 590 l 1
 103 597 l 1
 113 599 l 1
 120 590 l 1
 120 324 l 1
 486 324 l 1
 486 590 l 1
 493 599 l 1
 503 597 l 1
 506 590 l 1
 506 10 l 1
 503 3 l 1
 493 1 l 1
 486 10 l 1
 486 304 l 1
 120 304 l 1
 120 10 l 1
 113 1 l 1
 103 3 l 1
 100 10 l 1
 100 314 l 1
EndSplineSet
EndChar

StartChar: I
Encoding: 73 73 36
Width: 220
VWidth: 0
Flags: W
HStem: 0 21G<103 117> 580 20G<103 117>
VStem: 100 20<10 590>
LayerCount: 2
Back
Fore
SplineSet
100 10 m 1
 100 590 l 1
 103 597 l 1
 110 600 l 1
 117 597 l 1
 120 590 l 1
 120 10 l 1
 117 3 l 1
 110 0 l 1
 103 3 l 1
 100 10 l 1
EndSplineSet
EndChar

StartChar: J
Encoding: 74 74 37
Width: 442
VWidth: 0
Flags: W
HStem: 1 19<168 219> 580 20G<324 339>
VStem: 46 19<150 203> 321 20<150 590>
LayerCount: 2
Back
Fore
SplineSet
321 150 m 1
 321 590 l 1
 324 597 l 1
 331 600 l 1
 339 597 l 1
 341 590 l 1
 341 148 l 1
 311 58 l 1
 281 29 l 1
 221 0 l 1
 161 1 l 1
 106 29 l 1
 73 62 l 1
 46 145 l 1
 45 203 l 1
 51 213 l 1
 59 213 l 1
 65 207 l 1
 65 150 l 1
 92 71 l 1
 116 46 l 1
 168 20 l 1
 219 20 l 1
 270 46 l 1
 295 71 l 1
 321 150 l 1
EndSplineSet
EndChar

StartChar: K
Encoding: 75 75 38
Width: 579
VWidth: 0
Flags: W
HStem: 1 20G<100 117 488 502> 579 20G<103 120 489 503>
VStem: 100 20<10 199 227 590>
LayerCount: 2
Back
Fore
SplineSet
100 203 m 1
 100 590 l 1
 103 597 l 1
 113 599 l 1
 120 590 l 1
 120 227 l 1
 489 597 l 1
 496 600 l 1
 503 597 l 1
 506 590 l 1
 503 583 l 1
 261 340 l 1
 504 16 l 1
 506 9 l 1
 502 2 l 1
 495 0 l 1
 488 4 l 1
 247 326 l 1
 120 199 l 1
 120 10 l 1
 117 3 l 1
 106 1 l 1
 100 10 l 1
 100 203 l 1
EndSplineSet
EndChar

StartChar: L
Encoding: 76 76 39
Width: 470
VWidth: 0
Flags: W
HStem: 0 20<120 442> 580 20G<103 117>
VStem: 100 20<20 590>
LayerCount: 2
Back
Fore
SplineSet
100 10 m 1
 100 590 l 1
 103 597 l 1
 110 600 l 1
 117 597 l 1
 120 590 l 1
 120 20 l 1
 442 20 l 1
 449 17 l 1
 452 10 l 1
 449 3 l 1
 442 0 l 1
 110 0 l 1
 103 3 l 1
 100 10 l 1
EndSplineSet
EndChar

StartChar: M
Encoding: 77 77 40
Width: 663
VWidth: 0
Flags: W
HStem: 0 22G<103 117 322 340 542 559> 580 20G<103 119 543 559>
VStem: 100 20<10 536> 542 20<10 536>
LayerCount: 2
Back
Fore
SplineSet
100 10 m 1
 100 590 l 1
 103 597 l 1
 110 600 l 1
 119 594 l 1
 331 38 l 1
 543 594 l 1
 548 599 l 1
 559 597 l 1
 562 590 l 1
 562 10 l 1
 559 3 l 1
 548 1 l 1
 542 10 l 1
 542 536 l 1
 340 6 l 1
 331 0 l 1
 322 6 l 1
 120 536 l 1
 120 10 l 1
 117 3 l 1
 110 0 l 1
 103 3 l 1
 100 10 l 1
EndSplineSet
EndChar

StartChar: N
Encoding: 78 78 41
Width: 607
VWidth: 0
Flags: W
HStem: 0 21G<103 117 488 505> 580 20G<101 118 486 503>
VStem: 100 20<10 557> 486 19<43 590>
LayerCount: 2
Back
Fore
SplineSet
100 10 m 1
 101 596 l 1
 110 600 l 1
 118 596 l 1
 486 43 l 1
 486 590 l 1
 493 599 l 1
 503 597 l 1
 506 590 l 1
 505 4 l 1
 496 0 l 1
 488 4 l 1
 120 557 l 1
 120 10 l 1
 117 3 l 1
 110 0 l 1
 103 3 l 1
 100 10 l 1
EndSplineSet
EndChar

StartChar: O
Encoding: 79 79 42
Width: 609
VWidth: 0
Flags: W
HStem: 0 20<251 357> 580 20<251 357>
VStem: 74 19<233 367> 515 20<233 367>
LayerCount: 2
Back
Fore
SplineSet
189 571 m 1
 248 600 l 1
 359 600 l 1
 419 571 l 1
 479 512 l 1
 507 455 l 1
 534 372 l 1
 535 231 l 1
 506 144 l 1
 477 86 l 1
 422 31 l 1
 364 1 l 1
 249 0 l 1
 186 31 l 1
 129 88 l 1
 101 145 l 1
 74 228 l 1
 73 369 l 1
 101 455 l 1
 131 514 l 1
 189 571 l 1
251 580 m 1
 199 554 l 1
 147 501 l 1
 120 448 l 1
 93 367 l 1
 93 233 l 1
 120 152 l 1
 147 99 l 1
 199 46 l 1
 251 20 l 1
 357 20 l 1
 409 46 l 1
 461 99 l 1
 488 152 l 1
 515 233 l 1
 515 367 l 1
 488 448 l 1
 461 501 l 1
 409 554 l 1
 357 580 l 1
 251 580 l 1
EndSplineSet
EndChar

StartChar: P
Encoding: 80 80 43
Width: 579
VWidth: 0
Flags: W
HStem: 0 21G<103 117> 276 20<120 357> 580 20<120 357>
VStem: 100 20<10 276 296 580> 486 19<399 477>
LayerCount: 2
Back
Fore
SplineSet
100 590 m 1
 103 597 l 1
 110 600 l 1
 361 599 l 1
 448 569 l 1
 478 539 l 1
 506 480 l 1
 505 392 l 1
 478 337 l 1
 444 304 l 1
 358 276 l 1
 120 276 l 1
 120 10 l 1
 117 3 l 1
 110 0 l 1
 103 3 l 1
 100 10 l 1
 100 590 l 1
120 580 m 1
 120 296 l 1
 357 296 l 1
 436 323 l 1
 460 347 l 1
 486 399 l 1
 486 477 l 1
 460 529 l 1
 436 554 l 1
 357 580 l 1
 120 580 l 1
EndSplineSet
EndChar

StartChar: Q
Encoding: 81 81 44
Width: 609
VWidth: 0
Flags: W
HStem: 1 19<251 357> 580 20<251 357>
VStem: 73 20<233 367> 515 19<233 367>
LayerCount: 2
Back
Fore
SplineSet
189 571 m 1
 248 600 l 1
 364 599 l 1
 422 569 l 1
 477 514 l 1
 506 456 l 1
 535 369 l 1
 534 228 l 1
 507 145 l 1
 479 88 l 1
 429 38 l 1
 504 -38 l 1
 507 -45 l 1
 501 -54 l 1
 490 -52 l 1
 413 25 l 1
 359 0 l 1
 244 1 l 1
 186 31 l 1
 131 86 l 1
 102 144 l 1
 73 231 l 1
 74 372 l 1
 101 455 l 1
 129 512 l 1
 189 571 l 1
414 52 m 1
 461 99 l 1
 488 152 l 1
 515 233 l 1
 515 367 l 1
 488 448 l 1
 461 501 l 1
 409 554 l 1
 357 580 l 1
 251 580 l 1
 199 554 l 1
 147 501 l 1
 120 448 l 1
 93 367 l 1
 93 233 l 1
 120 152 l 1
 147 99 l 1
 199 46 l 1
 251 20 l 1
 357 20 l 1
 398 40 l 1
 325 113 l 1
 322 124 l 1
 332 130 l 1
 339 128 l 1
 414 52 l 1
EndSplineSet
EndChar

StartChar: R
Encoding: 82 82 45
Width: 579
VWidth: 0
Flags: W
HStem: 1 20G<103 120 488 502> 304 20<120 298 321 357> 580 20<120 357>
VStem: 100 20<10 304 324 580> 486 20<427 477>
LayerCount: 2
Back
Fore
SplineSet
100 590 m 1
 103 597 l 1
 110 600 l 1
 358 600 l 1
 444 572 l 1
 478 539 l 1
 505 484 l 1
 506 424 l 1
 478 365 l 1
 444 332 l 1
 361 304 l 1
 321 304 l 1
 505 15 l 1
 506 8 l 1
 502 2 l 1
 494 0 l 1
 488 5 l 1
 298 304 l 1
 120 304 l 1
 120 10 l 1
 113 1 l 1
 103 3 l 1
 100 10 l 1
 100 590 l 1
120 580 m 1
 120 324 l 1
 357 324 l 1
 436 350 l 1
 460 375 l 1
 486 427 l 1
 486 477 l 1
 460 529 l 1
 436 554 l 1
 357 580 l 1
 120 580 l 1
EndSplineSet
EndChar

StartChar: S
Encoding: 83 83 46
Width: 551
VWidth: 0
Flags: W
HStem: 0 20<221 329> 580 19<221 329>
VStem: 73 19<454 503> 458 20<97 173>
LayerCount: 2
Back
Fore
SplineSet
420 569 m 1
 475 514 l 1
 478 507 l 1
 475 500 l 1
 468 497 l 1
 461 500 l 1
 408 554 l 1
 329 580 l 1
 221 580 l 1
 142 554 l 1
 92 503 l 1
 92 454 l 1
 118 403 l 1
 143 377 l 1
 196 351 l 1
 361 296 l 1
 420 266 l 1
 450 235 l 1
 477 180 l 1
 478 89 l 1
 416 28 l 1
 333 1 l 1
 220 0 l 1
 134 28 l 1
 75 86 l 1
 72 93 l 1
 75 100 l 1
 82 103 l 1
 89 100 l 1
 142 46 l 1
 221 20 l 1
 329 20 l 1
 408 46 l 1
 458 97 l 1
 458 173 l 1
 432 225 l 1
 407 250 l 1
 354 277 l 1
 189 332 l 1
 130 362 l 1
 100 392 l 1
 73 447 l 1
 72 511 l 1
 134 572 l 1
 217 599 l 1
 330 600 l 1
 420 569 l 1
EndSplineSet
EndChar

StartChar: T
Encoding: 84 84 47
Width: 441
VWidth: 0
Flags: W
HStem: 0 21G<213 227> 580 20<27 210 230 413>
VStem: 210 20<10 580>
LayerCount: 2
Back
Fore
SplineSet
210 580 m 1
 27 580 l 1
 20 583 l 1
 17 590 l 1
 20 597 l 1
 27 600 l 1
 413 600 l 1
 420 597 l 1
 423 590 l 1
 420 583 l 1
 413 580 l 1
 230 580 l 1
 230 10 l 1
 227 3 l 1
 220 0 l 1
 213 3 l 1
 210 10 l 1
 210 580 l 1
EndSplineSet
EndChar

StartChar: U
Encoding: 85 85 48
Width: 607
VWidth: 0
Flags: W
HStem: 1 19<277 329> 580 20G<103 117 486 503>
VStem: 100 20<177 590> 486 20<177 590>
LayerCount: 2
Back
Fore
SplineSet
100 176 m 1
 100 590 l 1
 103 597 l 1
 110 600 l 1
 117 597 l 1
 120 590 l 1
 120 177 l 1
 146 98 l 1
 198 46 l 1
 277 20 l 1
 329 20 l 1
 408 46 l 1
 460 98 l 1
 486 177 l 1
 486 590 l 1
 493 599 l 1
 503 597 l 1
 506 590 l 1
 506 176 l 1
 476 86 l 1
 417 28 l 1
 334 1 l 1
 272 1 l 1
 189 28 l 1
 130 86 l 1
 100 176 l 1
EndSplineSet
EndChar

StartChar: V
Encoding: 86 86 49
Width: 497
VWidth: 0
Flags: W
HStem: 0 21G<239 257> 580 19G<18 36 460 478>
LayerCount: 2
Back
Fore
SplineSet
248 38 m 1
 460 594 l 1
 469 600 l 1
 478 594 l 1
 478 586 l 1
 257 6 l 1
 248 0 l 1
 239 6 l 1
 18 586 l 1
 18 594 l 1
 23 599 l 1
 31 599 l 1
 36 594 l 1
 248 38 l 1
EndSplineSet
EndChar

StartChar: W
Encoding: 87 87 50
Width: 663
VWidth: 0
Flags: W
HStem: 0 21G<185 203 464 479> 580 20G<46 65 323 341 597 613>
LayerCount: 2
Back
Fore
SplineSet
193 53 m 1
 323 596 l 1
 333 600 l 1
 341 592 l 1
 469 53 l 1
 597 592 l 1
 602 599 l 1
 613 598 l 1
 617 588 l 1
 479 8 l 1
 471 0 l 1
 464 1 l 1
 459 8 l 1
 331 547 l 1
 203 8 l 1
 195 0 l 1
 185 4 l 1
 45 588 l 1
 46 595 l 1
 56 600 l 1
 65 592 l 1
 193 53 l 1
EndSplineSet
EndChar

StartChar: X
Encoding: 88 88 51
Width: 551
VWidth: 0
Flags: W
HStem: 0 21G<76 90 460 477> 580 20G<73 90 460 474>
LayerCount: 2
Back
Fore
SplineSet
73 16 m 1
 263 300 l 1
 73 584 l 1
 73 596 l 1
 80 600 l 1
 90 596 l 1
 275 318 l 1
 460 596 l 1
 466 600 l 1
 474 598 l 1
 478 592 l 1
 477 584 l 1
 287 300 l 1
 477 16 l 1
 477 4 l 1
 466 0 l 1
 460 4 l 1
 275 282 l 1
 90 4 l 1
 84 0 l 1
 76 2 l 1
 72 8 l 1
 73 16 l 1
EndSplineSet
EndChar

StartChar: Y
Encoding: 89 89 52
Width: 499
VWidth: 0
Flags: W
HStem: 0 21G<242 256> 580 20G<19 36 462 476>
VStem: 239 20<10 310>
LayerCount: 2
Back
Fore
SplineSet
239 310 m 1
 20 584 l 1
 19 595 l 1
 29 600 l 1
 36 596 l 1
 249 330 l 1
 462 596 l 1
 469 600 l 1
 476 598 l 1
 480 591 l 1
 478 584 l 1
 259 310 l 1
 259 10 l 1
 256 3 l 1
 249 0 l 1
 242 3 l 1
 239 10 l 1
 239 310 l 1
EndSplineSet
EndChar

StartChar: Z
Encoding: 90 90 53
Width: 551
VWidth: 0
Flags: W
HStem: 0 20<100 468> 580 18<82 450>
LayerCount: 2
Back
Fore
SplineSet
72 11 m 1
 450 580 l 1
 82 580 l 1
 72 586 l 1
 75 597 l 1
 82 600 l 1
 474 598 l 1
 478 592 l 1
 477 584 l 1
 100 20 l 1
 468 20 l 1
 478 14 l 1
 475 3 l 1
 468 0 l 1
 82 0 l 1
 75 3 l 1
 72 11 l 1
EndSplineSet
EndChar

StartChar: a
Encoding: 97 97 54
Width: 526
VWidth: 0
Flags: W
HStem: 1 19<224 302> 387 20<224 302>
VStem: 74 19<177 229> 405 19<6 69 97 310 338 400>
LayerCount: 2
Back
Fore
SplineSet
367 376 m 1
 405 338 l 1
 405 400 l 1
 415 407 l 1
 424 400 l 1
 424 6 l 1
 415 0 l 1
 405 6 l 1
 405 69 l 1
 364 29 l 1
 309 1 l 1
 217 1 l 1
 159 31 l 1
 101 90 l 1
 74 173 l 1
 73 231 l 1
 101 317 l 1
 159 376 l 1
 221 407 l 1
 304 407 l 1
 367 376 l 1
405 310 m 1
 354 361 l 1
 302 387 l 1
 224 387 l 1
 172 361 l 1
 120 308 l 1
 93 229 l 1
 93 177 l 1
 120 98 l 1
 172 46 l 1
 224 20 l 1
 302 20 l 1
 354 46 l 1
 405 97 l 1
 405 310 l 1
EndSplineSet
EndChar

StartChar: b
Encoding: 98 98 55
Width: 525
VWidth: 0
Flags: W
HStem: 1 19<223 301> 387 20<223 301> 580 20G<103 117>
VStem: 100 20<10 69 97 310 338 590> 432 19<177 229>
LayerCount: 2
Back
Fore
SplineSet
100 314 m 1
 100 590 l 1
 103 597 l 1
 110 600 l 1
 117 597 l 1
 120 590 l 1
 120 338 l 1
 161 378 l 1
 221 407 l 1
 304 407 l 1
 366 376 l 1
 424 317 l 1
 451 234 l 1
 451 173 l 1
 421 86 l 1
 366 31 l 1
 304 0 l 1
 216 1 l 1
 161 29 l 1
 120 69 l 1
 120 6 l 1
 114 1 l 1
 103 3 l 1
 100 10 l 1
 100 314 l 1
120 97 m 1
 171 46 l 1
 223 20 l 1
 301 20 l 1
 353 46 l 1
 405 98 l 1
 432 177 l 1
 432 229 l 1
 405 308 l 1
 353 361 l 1
 301 387 l 1
 223 387 l 1
 171 361 l 1
 120 310 l 1
 120 97 l 1
EndSplineSet
EndChar

StartChar: c
Encoding: 99 99 56
Width: 499
VWidth: 0
Flags: W
HStem: 1 19<224 302> 387 20<224 302>
VStem: 74 19<177 229>
LayerCount: 2
Back
Fore
SplineSet
367 376 m 1
 422 321 l 1
 425 314 l 1
 422 307 l 1
 411 305 l 1
 354 361 l 1
 302 387 l 1
 224 387 l 1
 172 361 l 1
 120 308 l 1
 93 229 l 1
 93 177 l 1
 120 98 l 1
 172 46 l 1
 224 20 l 1
 302 20 l 1
 354 46 l 1
 411 102 l 1
 419 102 l 1
 424 97 l 1
 422 86 l 1
 367 31 l 1
 309 1 l 1
 217 1 l 1
 159 31 l 1
 101 90 l 1
 74 173 l 1
 73 231 l 1
 101 317 l 1
 159 376 l 1
 221 407 l 1
 304 407 l 1
 367 376 l 1
EndSplineSet
EndChar

StartChar: d
Encoding: 100 100 57
Width: 526
VWidth: 0
Flags: W
HStem: 1 19<224 302> 387 20<224 302> 579 20G<408 425>
VStem: 74 19<177 229> 405 20<6 69 97 310 338 590>
LayerCount: 2
Back
Fore
SplineSet
367 376 m 1
 405 338 l 1
 405 590 l 1
 408 597 l 1
 419 599 l 1
 425 590 l 1
 424 6 l 1
 415 0 l 1
 405 6 l 1
 405 69 l 1
 364 29 l 1
 309 1 l 1
 217 1 l 1
 159 31 l 1
 101 90 l 1
 74 173 l 1
 73 231 l 1
 101 317 l 1
 159 376 l 1
 221 407 l 1
 304 407 l 1
 367 376 l 1
405 310 m 1
 354 361 l 1
 302 387 l 1
 224 387 l 1
 172 361 l 1
 120 308 l 1
 93 229 l 1
 93 177 l 1
 120 98 l 1
 172 46 l 1
 224 20 l 1
 302 20 l 1
 354 46 l 1
 405 97 l 1
 405 310 l 1
EndSplineSet
EndChar

StartChar: e
Encoding: 101 101 58
Width: 499
VWidth: 0
Flags: W
HStem: 1 19<224 302> 221 20<97 405> 387 20<224 302>
VStem: 74 19<177 221> 405 19<241 284>
LayerCount: 2
Back
Fore
SplineSet
73 231 m 1
 101 317 l 1
 159 376 l 1
 221 407 l 1
 309 406 l 1
 364 378 l 1
 396 346 l 1
 425 286 l 1
 424 227 l 1
 415 221 l 1
 93 221 l 1
 93 177 l 1
 120 98 l 1
 172 46 l 1
 224 20 l 1
 302 20 l 1
 354 46 l 1
 411 102 l 1
 422 100 l 1
 424 89 l 1
 367 31 l 1
 309 1 l 1
 217 1 l 1
 159 31 l 1
 104 86 l 1
 74 173 l 1
 73 231 l 1
97 241 m 1
 405 241 l 1
 405 284 l 1
 379 336 l 1
 354 361 l 1
 302 387 l 1
 224 387 l 1
 172 361 l 1
 120 308 l 1
 97 241 l 1
EndSplineSet
EndChar

StartChar: f
Encoding: 102 102 59
Width: 331
VWidth: 0
Flags: W
HStem: 0 21G<131 145> 387 20<55 128 148 248> 580 20<223 276>
VStem: 128 20<10 387 407 478>
LayerCount: 2
Back
Fore
SplineSet
128 407 m 1
 129 483 l 1
 158 569 l 1
 221 600 l 1
 276 600 l 1
 283 597 l 1
 285 586 l 1
 280 581 l 1
 223 580 l 1
 174 555 l 1
 148 478 l 1
 148 407 l 1
 248 407 l 1
 256 404 l 1
 258 397 l 1
 256 390 l 1
 248 387 l 1
 148 387 l 1
 148 10 l 1
 145 3 l 1
 138 0 l 1
 131 3 l 1
 128 10 l 1
 128 387 l 1
 55 387 l 1
 48 390 l 1
 45 397 l 1
 48 404 l 1
 55 407 l 1
 128 407 l 1
EndSplineSet
EndChar

StartChar: g
Encoding: 103 103 60
Width: 524
VWidth: 0
Flags: W
HStem: -192 19<223 301> 1 19<223 301> 387 19<223 301>
VStem: 73 19<177 229> 404 19<-44 69 97 310 338 400>
LayerCount: 2
Back
Fore
SplineSet
366 376 m 1
 404 338 l 1
 404 400 l 1
 414 407 l 1
 423 400 l 1
 423 -48 l 1
 396 -131 l 1
 363 -165 l 1
 303 -193 l 1
 216 -192 l 1
 161 -165 l 1
 156 -159 l 1
 156 -151 l 1
 162 -146 l 1
 170 -147 l 1
 223 -173 l 1
 301 -173 l 1
 353 -147 l 1
 377 -123 l 1
 404 -44 l 1
 404 69 l 1
 363 29 l 1
 308 1 l 1
 216 1 l 1
 158 31 l 1
 100 90 l 1
 73 173 l 1
 73 234 l 1
 103 321 l 1
 158 376 l 1
 216 406 l 1
 303 407 l 1
 366 376 l 1
404 310 m 1
 353 361 l 1
 301 387 l 1
 223 387 l 1
 171 361 l 1
 119 308 l 1
 92 229 l 1
 92 177 l 1
 119 98 l 1
 171 46 l 1
 223 20 l 1
 301 20 l 1
 353 46 l 1
 404 97 l 1
 404 310 l 1
EndSplineSet
EndChar

StartChar: h
Encoding: 104 104 61
Width: 525
VWidth: 0
Flags: W
HStem: 0 22G<103 117 404 421> 387 20<250 328> 580 20G<103 117>
VStem: 100 20<10 282 310 590> 404 20<10 285>
LayerCount: 2
Back
Fore
SplineSet
100 286 m 1
 100 590 l 1
 103 597 l 1
 110 600 l 1
 117 597 l 1
 120 590 l 1
 120 310 l 1
 186 376 l 1
 248 407 l 1
 331 407 l 1
 391 378 l 1
 396 372 l 1
 424 286 l 1
 424 10 l 1
 421 3 l 1
 410 1 l 1
 404 10 l 1
 404 285 l 1
 378 362 l 1
 328 387 l 1
 250 387 l 1
 199 361 l 1
 120 282 l 1
 120 10 l 1
 117 3 l 1
 110 0 l 1
 103 3 l 1
 100 10 l 1
 100 286 l 1
EndSplineSet
EndChar

StartChar: i
Encoding: 105 105 62
Width: 221
VWidth: 0
Flags: W
HStem: 0 21G<103 117> 387 20G<103 117>
VStem: 100 20<10 397>
LayerCount: 2
Back
Fore
SplineSet
72 590 m 1
 75 597 l 1
 103 625 l 1
 110 628 l 1
 117 625 l 1
 145 597 l 1
 148 590 l 1
 145 583 l 1
 117 555 l 1
 110 552 l 1
 103 555 l 1
 75 583 l 1
 72 590 l 1
97 590 m 1
 110 577 l 1
 123 590 l 1
 110 603 l 1
 97 590 l 1
100 10 m 1
 100 397 l 1
 103 404 l 1
 110 407 l 1
 117 404 l 1
 120 397 l 1
 120 10 l 1
 117 3 l 1
 110 0 l 1
 103 3 l 1
 100 10 l 1
EndSplineSet
EndChar

StartChar: j
Encoding: 106 106 63
Width: 275
VWidth: 0
Flags: W
HStem: -193 19<27 79> 387 20G<158 172>
VStem: 155 19<-71 397>
LayerCount: 2
Back
Fore
SplineSet
127 590 m 1
 130 597 l 1
 158 625 l 1
 165 628 l 1
 172 625 l 1
 199 597 l 1
 202 590 l 1
 199 583 l 1
 172 555 l 1
 165 552 l 1
 158 555 l 1
 130 583 l 1
 127 590 l 1
151 590 m 1
 165 577 l 1
 178 590 l 1
 165 603 l 1
 151 590 l 1
155 -71 m 1
 155 397 l 1
 158 404 l 1
 165 407 l 1
 172 404 l 1
 175 397 l 1
 174 -76 l 1
 146 -159 l 1
 141 -165 l 1
 82 -193 l 1
 27 -193 l 1
 19 -190 l 1
 17 -183 l 1
 23 -174 l 1
 79 -173 l 1
 129 -149 l 1
 155 -71 l 1
EndSplineSet
EndChar

StartChar: k
Encoding: 107 107 64
Width: 470
VWidth: 0
Flags: W
HStem: 0 22G<103 117 406 423> 386 20G<379 395> 580 20G<103 117>
VStem: 100 20<10 116 145 590>
LayerCount: 2
Back
Fore
SplineSet
100 120 m 1
 100 590 l 1
 103 597 l 1
 110 600 l 1
 117 597 l 1
 120 590 l 1
 120 145 l 1
 379 404 l 1
 390 406 l 1
 395 400 l 1
 393 390 l 1
 234 230 l 1
 421 17 l 1
 423 6 l 1
 417 1 l 1
 406 3 l 1
 220 216 l 1
 120 116 l 1
 120 10 l 1
 117 3 l 1
 110 0 l 1
 103 3 l 1
 100 10 l 1
 100 120 l 1
EndSplineSet
EndChar

StartChar: l
Encoding: 108 108 65
Width: 220
VWidth: 0
Flags: W
HStem: 0 21G<103 117> 580 20G<103 117>
VStem: 100 20<10 590>
LayerCount: 2
Back
Fore
SplineSet
100 10 m 1
 100 590 l 1
 103 597 l 1
 110 600 l 1
 117 597 l 1
 120 590 l 1
 120 10 l 1
 117 3 l 1
 110 0 l 1
 103 3 l 1
 100 10 l 1
EndSplineSet
EndChar

StartChar: m
Encoding: 109 109 66
Width: 828
VWidth: 0
Flags: W
HStem: 1 21G<103 117 407 421 708 727> 387 19<251 329 554 633>
VStem: 100 20<10 282 310 397> 404 20<10 282> 708 19<10 285>
LayerCount: 2
Back
Fore
SplineSet
100 286 m 1
 100 397 l 1
 106 406 l 1
 117 404 l 1
 120 397 l 1
 120 310 l 1
 186 376 l 1
 244 406 l 1
 331 407 l 1
 394 376 l 1
 418 305 l 1
 490 376 l 1
 548 406 l 1
 639 406 l 1
 698 376 l 1
 727 289 l 1
 727 6 l 1
 722 1 l 1
 714 1 l 1
 708 10 l 1
 708 285 l 1
 682 362 l 1
 633 387 l 1
 554 387 l 1
 503 361 l 1
 424 282 l 1
 424 10 l 1
 421 3 l 1
 414 0 l 1
 407 3 l 1
 404 10 l 1
 404 285 l 1
 378 362 l 1
 329 387 l 1
 251 387 l 1
 199 361 l 1
 120 282 l 1
 120 10 l 1
 117 3 l 1
 110 0 l 1
 103 3 l 1
 100 10 l 1
 100 286 l 1
EndSplineSet
EndChar

StartChar: n
Encoding: 110 110 67
Width: 525
VWidth: 0
Flags: W
HStem: 0 22G<103 117 404 421> 387 19<250 328>
VStem: 100 20<10 282 310 397> 404 20<10 285>
LayerCount: 2
Back
Fore
SplineSet
100 286 m 1
 100 397 l 1
 106 406 l 1
 117 404 l 1
 120 397 l 1
 120 310 l 1
 186 376 l 1
 244 406 l 1
 331 407 l 1
 394 376 l 1
 424 286 l 1
 424 10 l 1
 421 3 l 1
 410 1 l 1
 404 10 l 1
 404 285 l 1
 378 362 l 1
 328 387 l 1
 250 387 l 1
 199 361 l 1
 120 282 l 1
 120 10 l 1
 117 3 l 1
 110 0 l 1
 103 3 l 1
 100 10 l 1
 100 286 l 1
EndSplineSet
EndChar

StartChar: o
Encoding: 111 111 68
Width: 524
VWidth: 0
Flags: W
HStem: 1 19<223 301> 387 20<223 301>
VStem: 73 19<177 229> 431 20<177 229>
LayerCount: 2
Back
Fore
SplineSet
161 378 m 1
 220 407 l 1
 303 407 l 1
 366 376 l 1
 423 317 l 1
 451 234 l 1
 451 176 l 1
 423 90 l 1
 366 31 l 1
 308 1 l 1
 216 1 l 1
 158 31 l 1
 100 90 l 1
 73 173 l 1
 73 234 l 1
 100 317 l 1
 161 378 l 1
223 387 m 1
 171 361 l 1
 119 308 l 1
 92 229 l 1
 92 177 l 1
 119 98 l 1
 171 46 l 1
 223 20 l 1
 301 20 l 1
 353 46 l 1
 405 98 l 1
 431 177 l 1
 431 229 l 1
 405 308 l 1
 353 361 l 1
 301 387 l 1
 223 387 l 1
EndSplineSet
EndChar

StartChar: p
Encoding: 112 112 69
Width: 526
VWidth: 0
Flags: W
HStem: -193 21G<103 117> 1 19<223 301> 387 19<223 301>
VStem: 100 20<-183 69 97 310 338 397> 432 19<177 229>
LayerCount: 2
Back
Fore
SplineSet
100 314 m 1
 100 397 l 1
 106 406 l 1
 114 406 l 1
 120 400 l 1
 120 338 l 1
 161 378 l 1
 216 406 l 1
 304 407 l 1
 366 376 l 1
 421 321 l 1
 452 231 l 1
 451 173 l 1
 421 86 l 1
 366 31 l 1
 308 1 l 1
 216 1 l 1
 161 29 l 1
 120 69 l 1
 120 -183 l 1
 117 -190 l 1
 110 -193 l 1
 103 -190 l 1
 100 -183 l 1
 100 314 l 1
120 97 m 1
 171 46 l 1
 223 20 l 1
 301 20 l 1
 353 46 l 1
 405 98 l 1
 432 177 l 1
 432 229 l 1
 405 308 l 1
 353 361 l 1
 301 387 l 1
 223 387 l 1
 171 361 l 1
 120 310 l 1
 120 97 l 1
EndSplineSet
EndChar

StartChar: q
Encoding: 113 113 70
Width: 526
VWidth: 0
Flags: W
HStem: -193 21G<408 422> 1 19<224 302> 387 20<224 302>
VStem: 73 20<177 229> 405 20<-183 69 97 310 338 400>
LayerCount: 2
Back
Fore
SplineSet
367 376 m 1
 405 338 l 1
 405 400 l 1
 415 407 l 1
 424 400 l 1
 425 -183 l 1
 422 -190 l 1
 415 -193 l 1
 408 -190 l 1
 405 -183 l 1
 405 69 l 1
 364 29 l 1
 309 1 l 1
 217 1 l 1
 159 31 l 1
 104 86 l 1
 73 176 l 1
 74 234 l 1
 101 317 l 1
 162 378 l 1
 221 407 l 1
 304 407 l 1
 367 376 l 1
405 310 m 1
 354 361 l 1
 302 387 l 1
 224 387 l 1
 172 361 l 1
 120 308 l 1
 93 229 l 1
 93 177 l 1
 120 98 l 1
 172 46 l 1
 224 20 l 1
 302 20 l 1
 354 46 l 1
 405 97 l 1
 405 310 l 1
EndSplineSet
EndChar

StartChar: r
Encoding: 114 114 71
Width: 359
VWidth: 0
Flags: W
HStem: 0 21G<103 117> 387 19<251 335>
VStem: 100 20<10 229 293 397>
LayerCount: 2
Back
Fore
SplineSet
100 10 m 1
 101 400 l 1
 106 406 l 1
 114 406 l 1
 120 397 l 1
 120 293 l 1
 131 321 l 1
 189 378 l 1
 248 407 l 1
 335 406 l 1
 341 397 l 1
 335 387 l 1
 251 387 l 1
 199 361 l 1
 147 308 l 1
 120 229 l 1
 120 10 l 1
 117 3 l 1
 110 0 l 1
 103 3 l 1
 100 10 l 1
EndSplineSet
EndChar

StartChar: s
Encoding: 115 115 72
Width: 470
VWidth: 0
Flags: W
HStem: 1 19<194 274> 387 19<194 274>
VStem: 376 19<95 118>
LayerCount: 2
Back
Fore
SplineSet
367 374 m 1
 395 318 l 1
 395 311 l 1
 390 305 l 1
 383 304 l 1
 377 309 l 1
 351 361 l 1
 274 387 l 1
 194 387 l 1
 117 361 l 1
 93 314 l 1
 117 266 l 1
 168 240 l 1
 305 213 l 1
 365 183 l 1
 396 120 l 1
 395 88 l 1
 367 33 l 1
 361 28 l 1
 275 0 l 1
 189 1 l 1
 103 30 l 1
 73 88 l 1
 72 96 l 1
 77 102 l 1
 85 102 l 1
 91 97 l 1
 117 46 l 1
 194 20 l 1
 274 20 l 1
 351 46 l 1
 376 95 l 1
 376 118 l 1
 351 168 l 1
 300 194 l 1
 163 221 l 1
 102 252 l 1
 72 314 l 1
 101 374 l 1
 106 379 l 1
 189 406 l 1
 275 407 l 1
 361 379 l 1
 367 374 l 1
EndSplineSet
EndChar

StartChar: t
Encoding: 116 116 73
Width: 331
VWidth: 0
Flags: W
HStem: 1 19<223 280> 387 20<55 128 148 248> 580 20G<131 145>
VStem: 128 20<122 387 407 590>
LayerCount: 2
Back
Fore
SplineSet
128 407 m 1
 128 590 l 1
 131 597 l 1
 138 600 l 1
 145 597 l 1
 148 590 l 1
 148 407 l 1
 248 407 l 1
 256 404 l 1
 258 397 l 1
 256 390 l 1
 248 387 l 1
 148 387 l 1
 148 122 l 1
 174 45 l 1
 223 20 l 1
 280 19 l 1
 286 10 l 1
 280 1 l 1
 216 1 l 1
 161 29 l 1
 156 34 l 1
 128 120 l 1
 128 387 l 1
 55 387 l 1
 48 390 l 1
 45 397 l 1
 48 404 l 1
 55 407 l 1
 128 407 l 1
EndSplineSet
EndChar

StartChar: u
Encoding: 117 117 74
Width: 525
VWidth: 0
Flags: W
HStem: 0 20<195 273> 386 20G<103 120 404 421>
VStem: 100 20<122 397> 404 20<10 96 125 397>
LayerCount: 2
Back
Fore
SplineSet
100 120 m 1
 100 397 l 1
 103 404 l 1
 114 406 l 1
 120 397 l 1
 120 122 l 1
 146 45 l 1
 195 20 l 1
 273 20 l 1
 325 46 l 1
 404 125 l 1
 404 397 l 1
 410 406 l 1
 421 404 l 1
 424 397 l 1
 424 10 l 1
 421 3 l 1
 410 1 l 1
 404 10 l 1
 404 96 l 1
 338 31 l 1
 280 1 l 1
 193 0 l 1
 130 31 l 1
 100 120 l 1
EndSplineSet
EndChar

StartChar: v
Encoding: 118 118 75
Width: 443
VWidth: 0
Flags: W
HStem: 0 21G<212 230> 387 19G<46 64 378 396>
LayerCount: 2
Back
Fore
SplineSet
221 35 m 1
 378 401 l 1
 387 407 l 1
 396 400 l 1
 396 393 l 1
 230 6 l 1
 221 0 l 1
 212 6 l 1
 46 393 l 1
 46 400 l 1
 51 406 l 1
 59 406 l 1
 64 401 l 1
 221 35 l 1
EndSplineSet
EndChar

StartChar: w
Encoding: 119 119 76
Width: 609
VWidth: 0
Flags: W
HStem: 0 21G<184 200 405 422> 387 18G<77 93 296 314 515 531>
LayerCount: 2
Back
Fore
SplineSet
194 46 m 1
 296 403 l 1
 305 407 l 1
 314 399 l 1
 414 46 l 1
 515 399 l 1
 520 405 l 1
 531 404 l 1
 535 394 l 1
 422 4 l 1
 412 0 l 1
 405 7 l 1
 304 360 l 1
 203 7 l 1
 200 2 l 1
 192 0 l 1
 184 7 l 1
 73 394 l 1
 77 404 l 1
 88 405 l 1
 93 399 l 1
 194 46 l 1
EndSplineSet
EndChar

StartChar: x
Encoding: 120 120 77
Width: 470
VWidth: 0
Flags: W
HStem: 0 21G<76 90 378 394> 387 20G<73 90 378 392>
VStem: 74 322
LayerCount: 2
Back
Fore
SplineSet
74 16 m 1
 221 203 l 1
 74 390 l 1
 73 402 l 1
 83 407 l 1
 90 403 l 1
 234 220 l 1
 378 403 l 1
 385 407 l 1
 392 405 l 1
 396 398 l 1
 394 390 l 1
 247 203 l 1
 394 16 l 1
 394 5 l 1
 385 0 l 1
 378 4 l 1
 234 187 l 1
 90 4 l 1
 83 0 l 1
 76 2 l 1
 72 9 l 1
 74 16 l 1
EndSplineSet
EndChar

StartChar: y
Encoding: 121 121 78
Width: 442
VWidth: 0
Flags: W
HStem: -193 19<27 52> 387 19G<45 63 377 395>
LayerCount: 2
Back
Fore
SplineSet
209 10 m 1
 45 393 l 1
 45 400 l 1
 54 407 l 1
 63 401 l 1
 220 35 l 1
 377 401 l 1
 382 406 l 1
 390 406 l 1
 395 400 l 1
 395 393 l 1
 229 6 l 1
 174 -105 l 1
 114 -165 l 1
 59 -192 l 1
 27 -193 l 1
 20 -190 l 1
 17 -183 l 1
 23 -174 l 1
 52 -173 l 1
 104 -147 l 1
 157 -95 l 1
 209 10 l 1
EndSplineSet
EndChar

StartChar: z
Encoding: 122 122 79
Width: 471
VWidth: 0
Flags: W
HStem: 0 20<103 387> 387 20<83 366>
VStem: 73 324
LayerCount: 2
Back
Fore
SplineSet
73 9 m 1
 75 16 l 1
 366 387 l 1
 83 387 l 1
 74 393 l 1
 76 404 l 1
 83 407 l 1
 387 407 l 1
 393 405 l 1
 397 398 l 1
 395 390 l 1
 103 20 l 1
 387 20 l 1
 396 14 l 1
 394 3 l 1
 387 0 l 1
 83 0 l 1
 76 3 l 1
 73 9 l 1
EndSplineSet
EndChar

StartChar: bar
Encoding: 124 124 80
Width: 220
VWidth: 0
Flags: W
HStem: -193 21G<103 117>
VStem: 100 20<-183 700>
LayerCount: 2
Back
Fore
SplineSet
100 -183 m 1
 100 700 l 1
 103 708 l 1
 110 710 l 1
 117 708 l 1
 120 700 l 1
 120 -183 l 1
 117 -190 l 1
 110 -193 l 1
 103 -190 l 1
 100 -183 l 1
EndSplineSet
EndChar

StartChar: degree
Encoding: 176 176 81
Width: 385
VWidth: 0
Flags: W
HStem: 359 20<167 217> 580 19<167 217>
VStem: 73 19<454 505> 292 20<454 505>
LayerCount: 2
Back
Fore
SplineSet
105 571 m 1
 161 599 l 1
 220 600 l 1
 282 569 l 1
 311 512 l 1
 312 452 l 1
 282 390 l 1
 224 360 l 1
 164 359 l 1
 102 390 l 1
 73 447 l 1
 72 507 l 1
 105 571 l 1
167 580 m 1
 117 555 l 1
 92 505 l 1
 92 454 l 1
 117 404 l 1
 167 379 l 1
 217 379 l 1
 267 404 l 1
 292 454 l 1
 292 505 l 1
 267 555 l 1
 217 580 l 1
 167 580 l 1
EndSplineSet
EndChar

StartChar: periodcentered
Encoding: 183 183 82
Width: 277
VWidth: 0
Flags: W
HStem: 224 69
VStem: 103 70
LayerCount: 2
Back
Fore
SplineSet
103 266 m 1
 131 293 l 1
 138 296 l 1
 145 293 l 1
 173 266 l 1
 176 259 l 1
 173 252 l 1
 145 224 l 1
 138 221 l 1
 131 224 l 1
 103 252 l 1
 100 259 l 1
 103 266 l 1
138 272 m 1
 125 259 l 1
 138 245 l 1
 151 259 l 1
 138 272 l 1
EndSplineSet
EndChar

StartChar: multiply
Encoding: 215 215 83
Width: 607
VWidth: 0
Flags: W
LayerCount: 2
Back
Fore
SplineSet
103 72 m 1
 289 259 l 1
 103 445 l 1
 100 452 l 1
 103 459 l 1
 110 462 l 1
 117 459 l 1
 303 273 l 1
 489 459 l 1
 496 462 l 1
 503 459 l 1
 506 452 l 1
 503 445 l 1
 317 259 l 1
 503 72 l 1
 506 65 l 1
 503 58 l 1
 496 55 l 1
 489 58 l 1
 303 244 l 1
 117 58 l 1
 110 55 l 1
 103 58 l 1
 100 65 l 1
 103 72 l 1
EndSplineSet
EndChar

StartChar: glyph84
Encoding: 256 8216 84
Width: 277
VWidth: 0
Flags: W
HStem: 417 182
VStem: 100 20<456 505>
LayerCount: 2
Back
Fore
SplineSet
131 569 m 1
 162 599 l 1
 169 599 l 1
 175 594 l 1
 173 583 l 1
 146 556 l 1
 120 505 l 1
 120 456 l 1
 138 438 l 1
 151 452 l 1
 129 476 l 1
 129 483 l 1
 134 489 l 1
 145 487 l 1
 173 459 l 1
 176 452 l 1
 173 445 l 1
 145 417 l 1
 138 414 l 1
 131 417 l 1
 103 445 l 1
 100 452 l 1
 101 512 l 1
 131 569 l 1
EndSplineSet
EndChar

StartChar: glyph85
Encoding: 257 8217 85
Width: 277
VWidth: 0
Flags: W
HStem: 417 180 579 20G<131 162>
VStem: 156 20<510 558>
LayerCount: 2
Back
Fore
SplineSet
125 562 m 1xa0
 147 539 l 1
 147 531 l 1
 142 526 l 1
 131 528 l 1
 103 555 l 1
 100 562 l 1
 103 569 l 1
 131 597 l 1xa0
 142 599 l 1x60
 175 566 l 1
 176 507 l 1
 147 447 l 1
 117 417 l 1
 110 414 l 1
 103 417 l 1
 101 428 l 1
 130 458 l 1
 156 510 l 1
 156 558 l 1
 138 576 l 1
 125 562 l 1xa0
EndSplineSet
EndChar

StartChar: glyph86
Encoding: 258 8594 86
Width: 719
VWidth: 0
Flags: W
HStem: 249 20<110 575> 387 20G<435 449>
LayerCount: 2
Back
Fore
SplineSet
518 307 m 1
 435 390 l 1
 432 397 l 1
 435 404 l 1
 442 407 l 1
 449 404 l 1
 531 322 l 1
 613 267 l 1
 618 259 l 1
 613 250 l 1
 531 196 l 1
 449 113 l 1
 442 110 l 1
 433 117 l 1
 435 128 l 1
 518 210 l 1
 575 249 l 1
 110 249 l 1
 103 252 l 1
 100 259 l 1
 103 266 l 1
 110 269 l 1
 575 269 l 1
 518 307 l 1
EndSplineSet
EndChar

StartChar: glyph87
Encoding: 259 8977 87
Width: 607
VWidth: 0
Flags: W
HStem: 1 21G<48 98.7407 507.259 559> 55 20<193 413> 442 20<193 413>
VStem: 100 20<149 368> 487 19<149 366.111>
LayerCount: 2
Back
Fore
SplineSet
45 507 m 1
 48 515 l 1
 58 517 l 1
 113 489 l 1
 221 462 l 1
 385 462 l 1
 493 489 l 1
 548 517 l 1
 558 515 l 1
 561 504 l 1
 533 448 l 1
 506 340 l 1
 506 177 l 1
 533 69 l 1
 561 13 l 1
 559 3 l 1
 548 1 l 1
 493 28 l 1
 385 55 l 1
 221 55 l 1
 113 28 l 1
 58 1 l 1
 48 2 l 1
 45 13 l 1
 73 69 l 1
 100 177 l 1
 100 340 l 1
 73 448 l 1
 45 507 l 1
77 485 m 1
 92 454 l 1
 119 344 l 1
 120 176 l 1
 92 63 l 1
 77 32 l 1
 107 47 l 1
 218 75 l 1
 386 75 l 1
 499 47 l 1
 529 32 l 1
 514 63 l 1
 487 173 l 1
 486 341 l 1
 514 454 l 1
 529 485 l 1
 499 470 l 1
 388 442 l 1
 220 442 l 1
 107 470 l 1
 77 485 l 1
EndSplineSet
EndChar

